<?xml version="1.0" encoding="UTF-8"?>
<!DOCTYPE svg PUBLIC "-//W3C//DTD SVG 1.1//EN" "http://www.w3.org/Graphics/SVG/1.1/DTD/svg11.dtd">
<!-- Creator: CorelDRAW X7 -->
<svg xmlns="http://www.w3.org/2000/svg" xml:space="preserve" width="0.213327in" height="0.209059in" version="1.1" style="shape-rendering:geometricPrecision; text-rendering:geometricPrecision; image-rendering:optimizeQuality; fill-rule:evenodd; clip-rule:evenodd"
viewBox="0 0 565 554"
 xmlns:xlink="http://www.w3.org/1999/xlink">
 <defs>
  <style type="text/css">
   <![CDATA[
    .fil0 {fill:#FF3200}
   ]]>
  </style>
 </defs>
 <g id="Layer_x0020_1">
  <metadata id="CorelCorpID_0Corel-Layer"/>
  <path class="fil0" d="M0 139l122 0 0 46c0,24 19,43 43,43 23,0 42,-19 42,-43l0 -46 150 0 0 46c0,24 20,43 43,43 24,0 43,-19 43,-43l0 -46 122 0 0 415 -565 0 0 -415zm421 46c0,12 -9,22 -21,22 -12,0 -21,-10 -21,-22l0 -47c0,-58 -41,-95 -97,-95 -55,0 -96,37 -96,95l0 47c0,12 -9,22 -21,22 -12,0 -22,-10 -22,-22l0 -47c0,-82 60,-138 139,-138 80,0 139,56 139,138l0 47z"/>
 </g>
</svg>
