<svg width="565" height="554" xmlns="http://www.w3.org/2000/svg">
 <defs>
  <style type="text/css">
   <![CDATA[
    .fil0 {fill:#ffffff}
   ]]>
  </style>
 </defs>
 <g>
  <title>background</title>
  <rect x="-1" y="-1" width="567" height="556" id="canvas_background" fill="none"/>
 </g>
 <g>
  <title>Layer 1</title>
  <g id="Layer_x0020_1">
   <metadata id="CorelCorpID_0Corel-Layer"/>
   <path class="fil0" d="m0,139l122,0l0,46c0,24 19,43 43,43c23,0 42,-19 42,-43l0,-46l150,0l0,46c0,24 20,43 43,43c24,0 43,-19 43,-43l0,-46l122,0l0,415l-565,0l0,-415zm421,46c0,12 -9,22 -21,22c-12,0 -21,-10 -21,-22l0,-47c0,-58 -41,-95 -97,-95c-55,0 -96,37 -96,95l0,47c0,12 -9,22 -21,22c-12,0 -22,-10 -22,-22l0,-47c0,-82 60,-138 139,-138c80,0 139,56 139,138l0,47z" id="svg_1"/>
  </g>
 </g>
</svg>