<?xml version="1.0" encoding="UTF-8"?>
<!DOCTYPE svg PUBLIC "-//W3C//DTD SVG 1.1//EN" "http://www.w3.org/Graphics/SVG/1.1/DTD/svg11.dtd">
<!-- Creator: CorelDRAW X7 -->
<svg xmlns="http://www.w3.org/2000/svg" xml:space="preserve" width="0.256012in" height="0.107138in" version="1.1" style="shape-rendering:geometricPrecision; text-rendering:geometricPrecision; image-rendering:optimizeQuality; fill-rule:evenodd; clip-rule:evenodd"
viewBox="0 0 809 339"
 xmlns:xlink="http://www.w3.org/1999/xlink">
 <defs>
  <style type="text/css">
   <![CDATA[
    .fil0 {fill:#FF3200;fill-rule:nonzero}
   ]]>
  </style>
 </defs>
 <g id="Layer_x0020_1">
  <metadata id="CorelCorpID_0Corel-Layer"/>
  <path class="fil0" d="M119 102l102 0 8 0 9 0 102 0 0 -102 -221 0 0 102zm102 17l-111 0 -8 0 -102 0 0 102 221 0 0 -102zm17 0l0 102 221 0 0 -102 -102 0 -9 0 -8 0 -102 0zm119 -17l102 0 9 0 8 0 102 0 0 -102 -221 0 0 102zm232 135l0 102 220 0 0 -102 -101 0 -9 0 -110 0zm-470 102l102 0 8 0 9 0 102 0 0 -102 -221 0 0 102z"/>
 </g>
</svg>
