<?xml version="1.0" encoding="UTF-8"?>
<!DOCTYPE svg PUBLIC "-//W3C//DTD SVG 1.1//EN" "http://www.w3.org/Graphics/SVG/1.1/DTD/svg11.dtd">
<!-- Creator: CorelDRAW X7 -->
<svg xmlns="http://www.w3.org/2000/svg" xml:space="preserve" width="0.247547in" height="0.167724in" version="1.1" style="shape-rendering:geometricPrecision; text-rendering:geometricPrecision; image-rendering:optimizeQuality; fill-rule:evenodd; clip-rule:evenodd"
viewBox="0 0 757 513"
 xmlns:xlink="http://www.w3.org/1999/xlink">
 <defs>
  <style type="text/css">
   <![CDATA[
    .fil0 {fill:#FF3200}
   ]]>
  </style>
 </defs>
 <g id="Layer_x0020_1">
  <metadata id="CorelCorpID_0Corel-Layer"/>
  <path class="fil0" d="M640 17l50 121 67 0 -13 48 -23 0 14 19 -24 202 0 106 -125 0 0 -85c-138,0 -277,0 -415,0l0 85 -125 0 0 -106 -23 -202 14 -19 -23 0 -14 -48 68 0 50 -121c171,-23 350,-23 522,0zm17 139l-36 -108c-119,-20 -366,-20 -484,0l-37 108c157,-26 401,-26 557,0zm-444 114l-146 -34 2 62 163 21 -19 -49zm331 0l146 -34 -2 62 -163 21 19 -49z"/>
 </g>
</svg>
