<?xml version="1.0" encoding="UTF-8"?>
<!DOCTYPE svg PUBLIC "-//W3C//DTD SVG 1.1//EN" "http://www.w3.org/Graphics/SVG/1.1/DTD/svg11.dtd">
<!-- Creator: CorelDRAW X7 -->
<svg xmlns="http://www.w3.org/2000/svg" xml:space="preserve" width="0.192016in" height="0.195831in" version="1.1" style="shape-rendering:geometricPrecision; text-rendering:geometricPrecision; image-rendering:optimizeQuality; fill-rule:evenodd; clip-rule:evenodd"
viewBox="0 0 535 545"
 xmlns:xlink="http://www.w3.org/1999/xlink">
 <defs>
  <style type="text/css">
   <![CDATA[
    .fil0 {fill:#FF3200}
   ]]>
  </style>
 </defs>
 <g id="Layer_x0020_1">
  <metadata id="CorelCorpID_0Corel-Layer"/>
  <path class="fil0" d="M0 149l535 0 0 396 -535 0 0 -396zm234 99l66 0 0 66 66 0 0 66 -66 0 0 66 -66 0 0 -66 -66 0 0 -66 66 0 0 -66zm-130 -128c0,-33 14,-63 36,-85l0 0c21,-22 51,-35 84,-35l87 0c32,0 62,13 84,35l0 0c22,22 35,52 35,85l-66 0c0,-15 -6,-28 -16,-38l0 0c-10,-10 -23,-16 -37,-16l-87 0c-15,0 -28,6 -38,16l1 0c-10,10 -16,23 -16,38l-67 0z"/>
 </g>
</svg>
