<?xml version="1.0" encoding="UTF-8"?>
<!DOCTYPE svg PUBLIC "-//W3C//DTD SVG 1.1//EN" "http://www.w3.org/Graphics/SVG/1.1/DTD/svg11.dtd">
<!-- Creator: CorelDRAW X7 -->
<svg xmlns="http://www.w3.org/2000/svg" xml:space="preserve" width="0.274984in" height="0.274984in" version="1.1" style="shape-rendering:geometricPrecision; text-rendering:geometricPrecision; image-rendering:optimizeQuality; fill-rule:evenodd; clip-rule:evenodd"
viewBox="0 0 763 763"
 xmlns:xlink="http://www.w3.org/1999/xlink">
 <defs>
  <style type="text/css">
   <![CDATA[
    .fil0 {fill:#FF3200;fill-rule:nonzero}
   ]]>
  </style>
 </defs>
 <g id="Layer_x0020_1">
  <metadata id="CorelCorpID_0Corel-Layer"/>
  <path class="fil0" d="M381 763l-300 0c-23,0 -43,-9 -57,-24 -15,-14 -24,-34 -24,-56l0 -602c0,-23 9,-43 24,-57 14,-15 34,-24 57,-24l602 0c22,0 42,9 56,24 15,14 24,34 24,57l0 602c0,22 -9,42 -24,56 -14,15 -34,24 -56,24l-209 0 0 -322 91 0 12 -64 -103 0 0 -99c0,-10 0,-20 2,-30 4,-13 11,-24 26,-31 17,-8 55,-10 79,-11l0 -48 -91 0c-32,0 -53,10 -66,25 -21,23 -25,57 -25,77l0 116 -93 0 0 65 98 0 0 322 -23 0zm-300 -44l278 0 0 -233 -98 0 0 -154 94 0 0 -72c0,-27 5,-73 36,-107 21,-23 52,-39 99,-39l135 0 0 137 -22 0c0,0 -67,-1 -82,6 -1,0 -2,1 -2,2 -1,5 -1,12 -1,19l0 55 111 0 -26 153 -85 0 0 233 165 0c9,0 19,-4 25,-11 7,-6 11,-15 11,-25l0 -602c0,-10 -4,-20 -11,-26 -6,-7 -15,-11 -25,-11l-602 0c-10,0 -19,4 -26,11 -7,7 -11,16 -11,26l0 602c0,10 4,19 11,25 6,7 16,11 26,11z"/>
 </g>
</svg>
