<?xml version="1.0" encoding="UTF-8"?>
<!DOCTYPE svg PUBLIC "-//W3C//DTD SVG 1.1//EN" "http://www.w3.org/Graphics/SVG/1.1/DTD/svg11.dtd">
<!-- Creator: CorelDRAW X7 -->
<svg xmlns="http://www.w3.org/2000/svg" xml:space="preserve" width="0.194906in" height="0.213327in" version="1.1" style="shape-rendering:geometricPrecision; text-rendering:geometricPrecision; image-rendering:optimizeQuality; fill-rule:evenodd; clip-rule:evenodd"
viewBox="0 0 551 603"
 xmlns:xlink="http://www.w3.org/1999/xlink">
 <defs>
  <style type="text/css">
   <![CDATA[
    .fil0 {fill:#FF3200}
   ]]>
  </style>
 </defs>
 <g id="Layer_x0020_1">
  <metadata id="CorelCorpID_0Corel-Layer"/>
  <path class="fil0" d="M0 312l551 0 0 287 -57 0 0 -210 -208 0 0 72 23 0 57 75c16,3 28,17 28,33 0,18 -15,33 -33,33 -18,0 -33,-15 -33,-33 0,-12 7,-23 16,-28l-58 -58 0 57c11,5 19,16 19,30 0,18 -14,33 -32,33 -18,0 -33,-15 -33,-33 0,-14 8,-25 19,-30l0 -57 -60 57c10,6 17,17 17,29 0,18 -14,33 -33,33 -18,0 -33,-15 -33,-33 0,-16 12,-29 27,-32l59 -76 23 0 0 -72 -203 0 0 210 -56 0 0 -287zm184 -25l183 0c0,-139 36,-105 36,-191 0,-53 -16,-96 -36,-96l-183 0c-20,0 -36,43 -36,96 0,86 36,52 36,191zm-165 18l113 0 0 -15 -113 0 0 15z"/>
 </g>
</svg>
