<?xml version="1.0" encoding="UTF-8"?>
<!DOCTYPE svg PUBLIC "-//W3C//DTD SVG 1.1//EN" "http://www.w3.org/Graphics/SVG/1.1/DTD/svg11.dtd">
<!-- Creator: CorelDRAW X7 -->
<svg xmlns="http://www.w3.org/2000/svg" xml:space="preserve" width="0.256in" height="0.198524in" version="1.1" style="shape-rendering:geometricPrecision; text-rendering:geometricPrecision; image-rendering:optimizeQuality; fill-rule:evenodd; clip-rule:evenodd"
viewBox="0 0 809 627"
 xmlns:xlink="http://www.w3.org/1999/xlink">
 <defs>
  <style type="text/css">
   <![CDATA[
    .fil0 {fill:#FF3200;fill-rule:nonzero}
   ]]>
  </style>
 </defs>
 <g id="Layer_x0020_1">
  <metadata id="CorelCorpID_0Corel-Layer"/>
  <path class="fil0" d="M614 566l90 0c7,0 14,-7 14,-14l0 -120c0,-8 -7,-14 -14,-14l-90 0c-8,0 -14,6 -14,14l0 120c0,7 6,14 14,14zm0 -210l90 0c7,0 14,-6 14,-14l0 -119c0,-8 -7,-14 -14,-14l-90 0c-8,0 -14,6 -14,14l0 119c0,8 6,14 14,14zm-75 -147l-90 0c-7,0 -14,6 -14,14l0 119c0,8 7,14 14,14l90 0c8,0 14,-6 14,-14l0 -119c0,-8 -6,-14 -14,-14zm-193 418l-62 0 0 -165c0,-8 -6,-14 -14,-14l-164 0c-8,0 -14,6 -14,14l0 165 -62 0 0 -163 -30 23 0 -39 178 -140c6,-5 14,-5 20,0l148 117 0 202zm-2 -448l223 -176c5,-4 14,-4 19,0l223 176 0 39 -30 -23 0 432 -226 0 0 -195c0,-8 -6,-14 -14,-14l-90 0c-7,0 -14,6 -14,14l0 195 -61 0 0 -433 -30 24 0 -39zm30 -179l63 0 0 69 -63 50 0 -119zm-254 536l136 0 0 32 -136 0 0 -32zm136 -28l-136 0 0 -32 136 0 0 32zm-136 88l136 0 0 31 -136 0 0 -31z"/>
 </g>
</svg>
