<svg width="809" height="627" xmlns="http://www.w3.org/2000/svg">
 <defs>
  <style type="text/css">
   <![CDATA[
    .fil0 {fill:#ffffff;fill-rule:nonzero}
   ]]>
  </style>
 </defs>
 <g>
  <title>background</title>
  <rect x="-1" y="-1" width="811" height="629" id="canvas_background" fill="none"/>
 </g>
 <g>
  <title>Layer 1</title>
  <g id="Layer_x0020_1">
   <metadata id="CorelCorpID_0Corel-Layer"/>
   <path class="fil0" d="m614,566l90,0c7,0 14,-7 14,-14l0,-120c0,-8 -7,-14 -14,-14l-90,0c-8,0 -14,6 -14,14l0,120c0,7 6,14 14,14zm0,-210l90,0c7,0 14,-6 14,-14l0,-119c0,-8 -7,-14 -14,-14l-90,0c-8,0 -14,6 -14,14l0,119c0,8 6,14 14,14zm-75,-147l-90,0c-7,0 -14,6 -14,14l0,119c0,8 7,14 14,14l90,0c8,0 14,-6 14,-14l0,-119c0,-8 -6,-14 -14,-14zm-193,418l-62,0l0,-165c0,-8 -6,-14 -14,-14l-164,0c-8,0 -14,6 -14,14l0,165l-62,0l0,-163l-30,23l0,-39l178,-140c6,-5 14,-5 20,0l148,117l0,202zm-2,-448l223,-176c5,-4 14,-4 19,0l223,176l0,39l-30,-23l0,432l-226,0l0,-195c0,-8 -6,-14 -14,-14l-90,0c-7,0 -14,6 -14,14l0,195l-61,0l0,-433l-30,24l0,-39zm30,-179l63,0l0,69l-63,50l0,-119zm-254,536l136,0l0,32l-136,0l0,-32zm136,-28l-136,0l0,-32l136,0l0,32zm-136,88l136,0l0,31l-136,0l0,-31z" id="svg_1"/>
  </g>
 </g>
</svg>