<?xml version="1.0" encoding="UTF-8"?>
<!DOCTYPE svg PUBLIC "-//W3C//DTD SVG 1.1//EN" "http://www.w3.org/Graphics/SVG/1.1/DTD/svg11.dtd">
<!-- Creator: CorelDRAW X7 -->
<svg xmlns="http://www.w3.org/2000/svg" xml:space="preserve" width="0.234669in" height="0.174469in" version="1.1" style="shape-rendering:geometricPrecision; text-rendering:geometricPrecision; image-rendering:optimizeQuality; fill-rule:evenodd; clip-rule:evenodd"
viewBox="0 0 949 706"
 xmlns:xlink="http://www.w3.org/1999/xlink">
 <defs>
  <style type="text/css">
   <![CDATA[
    .fil0 {fill:#FF3200}
   ]]>
  </style>
 </defs>
 <g id="Layer_x0020_1">
  <metadata id="CorelCorpID_0Corel-Layer"/>
  <path class="fil0" d="M39 259c-2,-3 2,-8 4,-11 3,-4 6,-5 9,-5 0,0 1,0 1,0 6,1 15,8 20,19 1,3 3,8 3,13 -19,-4 -34,-9 -37,-16zm642 -126c21,-41 59,-84 95,-105 12,13 9,73 -3,118 -16,9 -63,7 -92,-13zm-53 -84c2,-2 5,-3 8,-5 123,-56 146,-44 153,-40 14,7 21,28 22,63 0,25 -3,53 -9,78 9,9 18,19 25,29 16,22 29,47 37,73 1,5 5,9 10,10l39 13c22,7 36,27 36,50l0 64c0,23 -14,43 -36,50l-63 20c-3,1 -6,3 -8,7 -27,46 -68,85 -124,114l-19 103c-3,16 -17,28 -33,28l-66 0c-16,0 -30,-12 -33,-28l-10 -53c-28,4 -56,6 -85,6 -20,0 -41,-1 -61,-3l-9 50c-3,16 -17,28 -34,28l-65 0c-16,0 -30,-12 -33,-28l-19 -97c-45,-25 -81,-58 -106,-98 -27,-44 -41,-95 -41,-153 0,-7 1,-15 1,-23 0,0 0,0 0,0 -2,0 -5,0 -8,0 -2,5 -6,11 -10,16 -26,33 -53,39 -70,39 -1,0 -2,0 -3,0 -8,0 -14,-7 -14,-14l0 0c0,-8 6,-15 14,-15 14,0 34,-5 52,-27 1,-1 2,-3 2,-4 -29,-6 -47,-16 -54,-31 -4,-8 -6,-22 7,-39 9,-12 22,-18 36,-17 17,3 34,17 42,37 3,9 5,18 5,28 1,0 2,0 4,0 35,-242 322,-284 520,-231zm124 219c-18,0 -32,14 -32,31 0,18 14,32 32,32 17,0 31,-14 31,-32 0,-17 -14,-31 -31,-31zm-179 -188c16,2 27,18 24,34 -3,16 -18,27 -34,24 -32,-6 -65,-9 -99,-8 -31,0 -62,3 -92,10 -16,3 -32,-7 -35,-22 -4,-16 6,-32 22,-36 33,-7 69,-11 104,-11 38,-1 75,2 110,9z"/>
 </g>
</svg>
