<svg width="658" height="875" xmlns="http://www.w3.org/2000/svg">
 <defs>
  <style type="text/css">
   <![CDATA[
    .fil0 {fill:#ffffff}
   ]]>
  </style>
 </defs>
 <g>
  <title>background</title>
  <rect x="-1" y="-1" width="660" height="877" id="canvas_background" fill="none"/>
 </g>
 <g>
  <title>Layer 1</title>
  <g id="Layer_x0020_1">
   <metadata id="CorelCorpID_0Corel-Layer"/>
   <path class="fil0" d="m101,442l36,136c3,12 -4,25 -17,29l-2,0l5,16l188,-2l12,0l2,11l27,98l4,15l-15,3l-29,8l-7,-28l15,-4l-20,-73l-188,2l-12,0l-3,-11l-7,-27l-2,0c-12,4 -26,-4 -29,-16l-36,-136c-4,-12 4,-25 17,-29l32,-8c12,-4 25,4 29,16zm173,375l-214,57c-19,5 -40,-6 -45,-26l-14,-51c-5,-20 7,-40 27,-45l213,-58c19,-5 40,7 45,27l14,50c5,20 -7,41 -26,46zm-61,-586l25,0c11,0 20,9 21,19l0,114c0,12 9,22 21,22c11,0 21,-10 21,-22l0,-75c1,-11 10,-19 21,-19c11,0 20,8 21,19l0,27c0,12 10,21 21,21c12,0 21,-9 21,-21l0,-66c1,-10 10,-19 21,-19l194,0l0,336l-387,0l0,-336zm415,99l0,-78c0,-62 -25,-117 -65,-157c-40,-41 -96,-66 -157,-66c-61,0 -116,25 -157,66c-40,40 -65,95 -65,157l0,78l-29,0l0,-78c0,-70 28,-133 74,-178c45,-46 108,-74 177,-74c69,0 132,28 178,74c45,45 74,108 74,178l0,78l-30,0z" id="svg_1"/>
  </g>
 </g>
</svg>