<?xml version="1.0" encoding="UTF-8"?>
<!DOCTYPE svg PUBLIC "-//W3C//DTD SVG 1.1//EN" "http://www.w3.org/Graphics/SVG/1.1/DTD/svg11.dtd">
<!-- Creator: CorelDRAW X7 -->
<svg xmlns="http://www.w3.org/2000/svg" xml:space="preserve" width="0.213327in" height="0.283882in" version="1.1" style="shape-rendering:geometricPrecision; text-rendering:geometricPrecision; image-rendering:optimizeQuality; fill-rule:evenodd; clip-rule:evenodd"
viewBox="0 0 658 875"
 xmlns:xlink="http://www.w3.org/1999/xlink">
 <defs>
  <style type="text/css">
   <![CDATA[
    .fil0 {fill:#FF3200}
   ]]>
  </style>
 </defs>
 <g id="Layer_x0020_1">
  <metadata id="CorelCorpID_0Corel-Layer"/>
  <path class="fil0" d="M101 442l36 136c3,12 -4,25 -17,29l-2 0 5 16 188 -2 12 0 2 11 27 98 4 15 -15 3 -29 8 -7 -28 15 -4 -20 -73 -188 2 -12 0 -3 -11 -7 -27 -2 0c-12,4 -26,-4 -29,-16l-36 -136c-4,-12 4,-25 17,-29l32 -8c12,-4 25,4 29,16zm173 375l-214 57c-19,5 -40,-6 -45,-26l-14 -51c-5,-20 7,-40 27,-45l213 -58c19,-5 40,7 45,27l14 50c5,20 -7,41 -26,46zm-61 -586l25 0c11,0 20,9 21,19l0 114c0,12 9,22 21,22 11,0 21,-10 21,-22l0 -75c1,-11 10,-19 21,-19 11,0 20,8 21,19l0 27c0,12 10,21 21,21 12,0 21,-9 21,-21l0 -66c1,-10 10,-19 21,-19l194 0 0 336 -387 0 0 -336zm415 99l0 -78c0,-62 -25,-117 -65,-157 -40,-41 -96,-66 -157,-66 -61,0 -116,25 -157,66 -40,40 -65,95 -65,157l0 78 -29 0 0 -78c0,-70 28,-133 74,-178 45,-46 108,-74 177,-74 69,0 132,28 178,74 45,45 74,108 74,178l0 78 -30 0z"/>
 </g>
</svg>
