<?xml version="1.0" encoding="UTF-8"?>
<!DOCTYPE svg PUBLIC "-//W3C//DTD SVG 1.1//EN" "http://www.w3.org/Graphics/SVG/1.1/DTD/svg11.dtd">
<!-- Creator: CorelDRAW X7 -->
<svg xmlns="http://www.w3.org/2000/svg" xml:space="preserve" width="0.193335in" height="0.205622in" version="1.1" style="shape-rendering:geometricPrecision; text-rendering:geometricPrecision; image-rendering:optimizeQuality; fill-rule:evenodd; clip-rule:evenodd"
viewBox="0 0 542 576"
 xmlns:xlink="http://www.w3.org/1999/xlink">
 <defs>
  <style type="text/css">
   <![CDATA[
    .fil0 {fill:#FF3200}
   ]]>
  </style>
 </defs>
 <g id="Layer_x0020_1">
  <metadata id="CorelCorpID_0Corel-Layer"/>
  <path class="fil0" d="M278 414l-15 0 -191 113c-5,-4 -11,-7 -18,-7 -15,0 -28,13 -28,28 0,16 13,28 28,28 16,0 28,-12 28,-28 0,-3 0,-6 -1,-9l182 -108 0 83c-11,3 -20,14 -20,27 0,15 12,28 28,28 15,0 28,-13 28,-28 0,-13 -9,-24 -21,-27l0 -83 183 108c-1,3 -1,6 -1,9 0,16 12,28 28,28 15,0 28,-12 28,-28 0,-15 -13,-28 -28,-28 -7,0 -14,3 -18,7l-192 -113zm-11 -52l231 0 0 -275 -454 0 0 275 223 0zm75 -211c0,-5 4,-9 8,-9l35 0c4,0 8,4 8,9l0 155 -51 0 0 -155zm-97 98c0,-5 4,-9 9,-9l34 0c5,0 8,4 8,9l0 59 -51 0 0 -59zm-96 22c0,-5 3,-8 8,-8l35 0c4,0 8,3 8,8l0 37 -51 0 0 -37zm393 -235c0,9 -9,16 -20,16l-502 0c-11,0 -20,-7 -20,-16l0 -20c0,-9 9,-16 20,-16l502 0c11,0 20,7 20,16l0 20z"/>
 </g>
</svg>
