<svg width="542" height="576" xmlns="http://www.w3.org/2000/svg">
 <defs>
  <style type="text/css">
   <![CDATA[
    .fil0 {fill:#ffffff}
   ]]>
  </style>
 </defs>
 <g>
  <title>background</title>
  <rect x="-1" y="-1" width="544" height="578" id="canvas_background" fill="none"/>
 </g>
 <g>
  <title>Layer 1</title>
  <g id="Layer_x0020_1">
   <metadata id="CorelCorpID_0Corel-Layer"/>
   <path class="fil0" d="m278,414l-15,0l-191,113c-5,-4 -11,-7 -18,-7c-15,0 -28,13 -28,28c0,16 13,28 28,28c16,0 28,-12 28,-28c0,-3 0,-6 -1,-9l182,-108l0,83c-11,3 -20,14 -20,27c0,15 12,28 28,28c15,0 28,-13 28,-28c0,-13 -9,-24 -21,-27l0,-83l183,108c-1,3 -1,6 -1,9c0,16 12,28 28,28c15,0 28,-12 28,-28c0,-15 -13,-28 -28,-28c-7,0 -14,3 -18,7l-192,-113zm-11,-52l231,0l0,-275l-454,0l0,275l223,0zm75,-211c0,-5 4,-9 8,-9l35,0c4,0 8,4 8,9l0,155l-51,0l0,-155zm-97,98c0,-5 4,-9 9,-9l34,0c5,0 8,4 8,9l0,59l-51,0l0,-59zm-96,22c0,-5 3,-8 8,-8l35,0c4,0 8,3 8,8l0,37l-51,0l0,-37zm393,-235c0,9 -9,16 -20,16l-502,0c-11,0 -20,-7 -20,-16l0,-20c0,-9 9,-16 20,-16l502,0c11,0 20,7 20,16l0,20z" id="svg_1"/>
  </g>
 </g>
</svg>