<?xml version="1.0" encoding="UTF-8"?>
<!DOCTYPE svg PUBLIC "-//W3C//DTD SVG 1.1//EN" "http://www.w3.org/Graphics/SVG/1.1/DTD/svg11.dtd">
<!-- Creator: CorelDRAW X7 -->
<svg xmlns="http://www.w3.org/2000/svg" xml:space="preserve" width="0.213327in" height="0.154504in" version="1.1" style="shape-rendering:geometricPrecision; text-rendering:geometricPrecision; image-rendering:optimizeQuality; fill-rule:evenodd; clip-rule:evenodd"
viewBox="0 0 565 409"
 xmlns:xlink="http://www.w3.org/1999/xlink">
 <defs>
  <style type="text/css">
   <![CDATA[
    .fil0 {fill:#FF3200}
   ]]>
  </style>
 </defs>
 <g id="Layer_x0020_1">
  <metadata id="CorelCorpID_0Corel-Layer"/>
  <path class="fil0" d="M283 167c17,0 31,14 31,32 0,17 -14,31 -31,31 -17,0 -31,-14 -31,-31 0,-18 14,-32 31,-32zm36 -123c45,-15 42,-24 85,-5 -13,-1 -26,9 -38,25 3,2 6,4 9,6 48,3 48,-6 81,28 -12,-6 -27,-2 -44,8 2,3 4,6 6,10 43,20 46,12 63,56 -9,-10 -24,-12 -44,-10 1,4 2,8 2,12 32,35 38,29 37,76 -4,-12 -18,-20 -37,-26 0,4 -1,8 -2,12 13,37 21,41 12,65l-13 0c-4,-6 -11,-12 -19,-19 -2,4 -4,7 -6,10 0,3 0,6 0,9l-283 0c8,-1 16,-5 26,-10l0 0 0 0 0 0c-2,-3 -4,-6 -6,-9l0 0c-44,-21 -47,-13 -64,-57 8,10 24,12 44,10l0 0 0 0 1 0c-1,-4 -2,-7 -2,-11l-1 0c-32,-36 -38,-29 -37,-77 4,13 18,21 37,26l0 0 0 0 1 0c0,-3 1,-7 2,-10l-1 0c-16,-46 -24,-43 -5,-86 -1,13 9,26 25,38l0 0 0 0 0 0c2,-3 4,-6 6,-8l0 -1c3,-48 -6,-48 28,-81 -6,12 -2,27 8,45l0 0 0 0 0 0c3,-2 6,-4 9,-6l0 0c21,-44 13,-47 57,-64 -10,9 -12,24 -10,44l0 0 0 0 0 0c4,0 7,-1 11,-2l0 0c36,-32 29,-38 77,-37 -13,4 -21,18 -26,37l0 0c4,1 7,1 11,2zm-319 365c188,0 377,0 565,0l-42 -69 -481 0 -42 69z"/>
 </g>
</svg>
