<?xml version="1.0" encoding="UTF-8"?>
<!DOCTYPE svg PUBLIC "-//W3C//DTD SVG 1.1//EN" "http://www.w3.org/Graphics/SVG/1.1/DTD/svg11.dtd">
<!-- Creator: CorelDRAW X7 -->
<svg xmlns="http://www.w3.org/2000/svg" xml:space="preserve" width="0.336795in" height="0.272713in" version="1.1" style="shape-rendering:geometricPrecision; text-rendering:geometricPrecision; image-rendering:optimizeQuality; fill-rule:evenodd; clip-rule:evenodd"
viewBox="0 0 1040 842"
 xmlns:xlink="http://www.w3.org/1999/xlink">
 <defs>
  <style type="text/css">
   <![CDATA[
    .fil0 {fill:#FF3200;fill-rule:nonzero}
   ]]>
  </style>
 </defs>
 <g id="Layer_x0020_1">
  <metadata id="CorelCorpID_0Corel-Layer"/>
  <path class="fil0" d="M941 235c-2,90 -35,571 -605,607l-1 0c0,0 -127,5 -275,-59l-35 -17 -25 -13 12 -46c1,0 145,2 245,-49 -48,-18 -115,-54 -144,-118l-6 -13 -4 -13 -8 -31 32 0 -6 -4c-43,-34 -86,-88 -92,-173l33 -15 4 -8 7 4c-37,-54 -69,-139 -7,-238l18 -30 22 28c0,0 146,181 372,197 0,-24 3,-61 15,-99 5,-16 13,-32 22,-47 9,-13 20,-25 33,-36 45,-35 107,-63 172,-62 49,1 100,18 147,61 28,-6 94,-23 102,-35l43 23c-1,3 -14,32 -33,60 13,-3 24,-6 29,-9l32 37c0,0 -59,70 -99,98zm-606 558c578,-38 556,-569 556,-571l0 -16 14 -7c11,-5 26,-18 41,-33l-35 6 -13 -47c10,-5 20,-16 30,-29l1 -1c-34,10 -65,17 -65,17l-13 3 -9 -10c-40,-39 -82,-55 -123,-56 -53,-1 -103,23 -141,52 -8,7 -16,15 -22,24 -6,11 -12,23 -16,35 -17,51 -11,110 -11,110l0 25 -26 0c-205,-4 -354,-133 -411,-190 -46,117 68,204 68,205l38 31c-18,4 -41,12 -60,14 -17,2 -35,-3 -52,-8 13,43 39,73 65,93 35,27 69,37 73,38l-3 9 12 34c-15,12 -43,15 -67,15 45,69 153,89 154,89l48 10 -38 34c-60,50 -152,72 -221,81 123,46 223,43 226,43z"/>
 </g>
</svg>
