<?xml version="1.0" encoding="UTF-8"?>
<!DOCTYPE svg PUBLIC "-//W3C//DTD SVG 1.1//EN" "http://www.w3.org/Graphics/SVG/1.1/DTD/svg11.dtd">
<!-- Creator: CorelDRAW X7 -->
<svg xmlns="http://www.w3.org/2000/svg" xml:space="preserve" width="0.342236in" height="0.273161in" version="1.1" style="shape-rendering:geometricPrecision; text-rendering:geometricPrecision; image-rendering:optimizeQuality; fill-rule:evenodd; clip-rule:evenodd"
viewBox="0 0 989 789"
 xmlns:xlink="http://www.w3.org/1999/xlink">
 <defs>
  <style type="text/css">
   <![CDATA[
    .fil0 {fill:#FF3200;fill-rule:nonzero}
   ]]>
  </style>
 </defs>
 <g id="Layer_x0020_1">
  <metadata id="CorelCorpID_0Corel-Layer"/>
  <path class="fil0" d="M397 288l0 249 240 -124 -240 -125zm-46 287l0 -363 386 201 -386 200 0 -38zm576 -407c-5,-23 -16,-54 -37,-78 -14,-15 -33,-27 -59,-30 -36,-4 -81,-8 -126,-10 -50,-2 -101,-4 -143,-4 -47,0 -154,2 -248,5 -65,2 -126,5 -157,9 -25,3 -44,15 -58,30 -21,24 -32,55 -37,78 -3,19 -8,52 -12,100 -2,34 -4,76 -4,127 0,43 2,85 5,122 3,47 8,86 11,104 5,23 16,55 37,78 14,15 33,27 58,30 34,4 95,7 162,10 82,2 177,4 243,4 60,0 108,-1 151,-4 42,-2 80,-5 118,-10 26,-3 45,-15 59,-30 21,-23 32,-55 37,-78 3,-18 8,-56 11,-104 3,-37 5,-79 5,-122 0,-51 -2,-93 -5,-127 -3,-48 -8,-81 -11,-100zm-3 -109c28,31 42,71 48,101 4,20 9,55 12,104 3,37 5,80 5,131 0,43 -2,87 -5,126 -3,49 -8,89 -12,109 -6,29 -20,69 -48,100 -21,23 -49,41 -87,45 -38,5 -77,8 -122,10 -45,3 -94,4 -153,4 -63,0 -158,-1 -244,-4 -69,-3 -132,-6 -166,-10 -38,-4 -66,-22 -87,-45 -28,-31 -42,-71 -48,-100 -4,-20 -9,-60 -12,-110 -3,-38 -5,-82 -5,-125 0,-51 2,-94 4,-130 4,-50 9,-85 13,-105 6,-30 20,-70 48,-101 21,-23 49,-41 87,-45 31,-4 93,-7 161,-9 97,-3 205,-5 249,-5 41,0 93,1 146,4 47,2 93,6 129,10 37,4 66,22 87,45z"/>
 </g>
</svg>
