<svg xmlns="http://www.w3.org/2000/svg" version="1.0" width="60" height="60" preserveAspectRatio="xMidYMid meet" style=""><rect id="backgroundrect" width="100%" height="100%" x="0" y="0" fill="none" stroke="none" class="" style=""/>
<metadata>
Created by potrace 1.15, written by Peter Selinger 2001-2017
</metadata>

<g class="currentLayer" style=""><title>Layer 1</title><g transform="translate(0,512) scale(0.10000000149011612,-0.10000000149011612) " fill="#eb1a1a" stroke="none" id="svg_1" class="" fill-opacity="1">
<path d="M249.33249506805168,5027.860312384719 l-45.74205133664159,-46.90590447615393 l-0.5717756417080206,20.894448357559483 l-0.5717756417080206,20.894448357559483 l-17.953755149631824,0.42641731341958417 l-18.068110277973425,0.42641731341958417 l0,-40.36750567038702 l0,-40.36750567038702 l-36.02186542760525,-36.671888954084 c-19.783437203097495,-20.325891939666707 -36.02186542760525,-37.382584476449956 -36.02186542760525,-37.95114089434273 c0,-1.563530149205131 21.61311925656315,-33.829106864620115 22.642315411637586,-33.829106864620115 c0.45742051336641837,0 6.9756628288378435,6.254120596820524 14.523101299383702,14.071771342846182 l13.722615400992478,13.929632238373001 l0.3430653850248165,-51.59649492376932 l0.22871025668320938,-51.738634028242515 l14.294391042700498,0 l14.294391042700498,0 l0,25.30076059622848 l0,25.30076059622848 l60.60821802105012,62.25692775925885 l60.60821802105012,62.11478865478567 l27.216520545301748,-27.859264476746002 c14.866166684408519,-15.493162387578122 42.19704235805185,-43.494565968797296 60.493862892708535,-62.39906686373206 l33.50605260408997,-34.25552417803969 l0,-25.1586214917553 l0,-25.30076059622848 l14.294391042700498,0 l14.294391042700498,0 l0.22871025668320938,51.738634028242515 l0.3430653850248165,51.59649492376932 l13.722615400992478,-13.929632238373001 c7.547438470545865,-7.8176507460256595 14.065680786017289,-14.071771342846182 14.523101299383702,-14.071771342846182 c0.45742051336641837,0 5.832111545421805,7.391233432606078 11.892933347526814,16.48813611889048 c7.890503855570677,11.797545671275074 10.749382064110778,17.198831641256444 10.063251294061148,18.47808358151519 c-1.14355128341604,2.132086567097906 -199.66405408444052,205.24886685929172 -200.57889511117335,205.24886685929172 c-0.3430653850248165,0 -21.155698743196734,-21.036587462032678 -46.31382697834961,-46.76376537168074 z" id="svg_2" fill="#eb1a1a" fill-opacity="1"/>
<path d="M247.3884578862444,4844.927284927718 l-47.80044364679046,-49.03799104325186 l0,-63.25190149057124 l0,-63.109762386098026 l96.05830780694738,0 l96.05830780694738,0 l0,62.96762328162483 l0,63.109762386098026 l-47.45737826176566,48.895851938778655 c-26.187324390227317,26.864290745433614 -47.91479877513208,49.03799104325186 -48.37221928849849,49.18013014772506 c-0.45742051336641837,0.1421391044731948 -22.299250026612768,-21.747282984398648 -48.4865744168401,-48.75371283430547 zm44.827210309908786,-59.5562847742682 l0,-20.6101701486131 l-17.153269251240598,0 l-17.153269251240598,0 l0,20.6101701486131 l0,20.6101701486131 l17.153269251240598,0 l17.153269251240598,0 l0,-20.6101701486131 zm41.16784620297743,0 l0,-20.6101701486131 l-17.153269251240598,0 l-17.153269251240598,0 l0,20.6101701486131 l0,20.6101701486131 l17.153269251240598,0 l17.153269251240598,0 l0,-20.6101701486131 zm-41.16784620297743,-46.19520895378797 l0,-19.89947462624713 l-17.153269251240598,0 l-17.153269251240598,0 l0,19.89947462624713 l0,19.89947462624713 l17.153269251240598,0 l17.153269251240598,0 l0,-19.89947462624713 zm41.16784620297743,0 l0,-19.89947462624713 l-17.153269251240598,0 l-17.153269251240598,0 l0,19.89947462624713 l0,19.89947462624713 l17.153269251240598,0 l17.153269251240598,0 l0,-19.89947462624713 z" id="svg_3" fill="#eb1a1a" fill-opacity="1"/>
<path d="M79.40077435242819,4692.696304036927 c-20.012147459780696,-33.544828655673726 -75.70309496214186,-129.2044459661332 -76.16051547550823,-130.76797611533829 c-0.45742051336641837,-1.563530149205131 51.116742368697,-1.8478083581515192 292.29170804113977,-1.8478083581515192 c161.12637583332,0 292.86348368284786,0.42641731341958417 292.86348368284786,1.1371128357855511 c0,0.5685564178927757 -18.182465406315032,31.981298506468598 -40.36736030458621,69.93243940081135 l-40.36736030458621,68.93746566949895 l-31.6763705506243,0.42641731341958417 l-31.6763705506243,0.2842782089463881 l0,-31.27060298410263 l0,-31.27060298410263 l-148.66166684408518,0 l-148.66166684408518,0 l0,31.27060298410263 l0,31.27060298410263 l-31.447660293941087,0 l-31.333305165599487,0 l-4.802915390347368,-8.101928954972045 z" id="svg_4" fill="#eb1a1a" fill-opacity="1"/>
</g></g></svg>